<?xml version="1.0" standalone="no"?>
<!DOCTYPE svg PUBLIC "-//W3C//DTD SVG 20010904//EN"
 "http://www.w3.org/TR/2001/REC-SVG-20010904/DTD/svg10.dtd">
<svg version="1.0" xmlns="http://www.w3.org/2000/svg"
 width="260.000000pt" height="260.000000pt" viewBox="0 0 260.000000 260.000000"
 preserveAspectRatio="xMidYMid meet">
<metadata>
Created by potrace 1.11, written by Peter Selinger 2001-2013
</metadata>
<g transform="translate(0.000000,260.000000) scale(0.100000,-0.100000)"
fill="#000000" stroke="none">
<path d="M1105 2586 c-547 -91 -966 -492 -1082 -1036 -28 -131 -25 -382 5
-520 59 -265 178 -476 374 -666 183 -177 390 -286 648 -341 119 -25 381 -25
500 0 467 100 836 425 984 868 47 143 61 232 61 409 0 121 -5 187 -18 250
-111 521 -500 913 -1017 1025 -102 22 -353 28 -455 11z m624 -94 c172 -68 274
-188 316 -372 15 -65 38 -454 28 -469 -2 -3 -9 1 -15 7 -7 7 -14 42 -15 80 -4
67 -21 142 -33 142 -3 0 -11 -5 -18 -12 -10 -9 -16 -9 -28 4 -13 13 -15 27 -9
74 7 56 8 57 20 34 10 -18 10 -27 2 -32 -8 -5 -8 -15 -2 -34 12 -32 31 -33 27
-1 -1 12 -3 35 -5 52 -1 19 -10 33 -26 41 l-23 12 21 7 c12 4 28 2 36 -5 22
-18 23 1 5 90 -26 128 -53 181 -125 248 -79 74 -131 98 -253 117 -113 18 -344
17 -303 -1 20 -9 7 -12 -79 -22 -116 -12 -158 -32 -69 -32 85 0 91 -16 7 -24
-40 -4 -77 -11 -82 -16 -7 -7 -5 -10 5 -10 25 -1 -12 -17 -56 -25 -22 -3 -56
-15 -75 -25 l-35 -19 40 -2 40 -1 -35 -10 c-158 -46 -234 -118 -259 -249 l-9
-44 -1 46 c-2 94 40 188 139 311 l35 43 -55 -46 c-30 -25 -84 -59 -120 -76
-93 -43 -140 -81 -185 -149 -54 -82 -55 -82 -44 -33 26 114 141 229 311 314
194 95 304 114 643 111 209 -2 235 -4 284 -24z m-257 -422 c-4 -51 5 -62 28
-35 18 22 33 7 26 -27 -4 -19 1 -43 13 -68 20 -42 11 -70 -16 -48 -10 8 -18 7
-32 -6 -29 -27 -51 2 -51 68 0 28 -4 56 -9 62 -16 17 -1 81 22 92 12 6 22 11
22 11 0 1 -2 -21 -3 -49z m380 -1 c-4 -46 7 -64 23 -39 11 18 35 -10 29 -34
-3 -12 2 -39 11 -60 19 -44 13 -75 -10 -56 -8 6 -23 9 -36 5 -28 -9 -36 5 -45
75 -3 30 -12 61 -18 69 -8 11 -8 15 2 19 8 2 11 14 7 35 -6 28 -4 32 17 33 21
2 23 -2 20 -47z m-714 -31 c2 -15 -1 -36 -7 -46 -8 -16 -6 -23 10 -33 13 -9
22 -29 26 -54 5 -38 2 -43 -36 -78 -32 -29 -49 -37 -79 -37 -54 0 -83 -23 -75
-60 3 -19 1 -30 -6 -30 -15 0 -14 39 3 86 15 44 11 65 -10 57 -19 -7 -18 6 2
28 21 23 9 42 -22 35 -29 -8 -32 9 -4 24 11 6 20 19 20 30 0 10 5 22 10 25 24
15 8 27 -29 22 -30 -4 -38 -2 -35 8 7 17 19 22 78 30 30 5 46 4 46 -3 0 -6 -4
-14 -10 -17 -5 -3 -10 -47 -10 -96 0 -63 3 -88 11 -83 7 4 9 31 4 83 l-7 77
37 33 c45 39 79 39 83 -1z m254 -8 c9 0 9 -3 0 -12 -18 -18 -15 -115 4 -126
13 -7 13 -10 1 -20 -18 -15 -44 -6 -51 16 -11 37 -8 139 4 162 l13 24 8 -22
c5 -12 14 -22 21 -22z m288 -39 c0 -28 -8 -42 -45 -75 -52 -48 -61 -82 -19
-72 17 5 23 3 19 -4 -3 -5 -17 -10 -30 -10 l-25 0 7 89 c4 59 2 90 -5 95 -14
8 -4 36 13 36 19 0 28 -29 25 -79 -1 -32 2 -42 12 -39 16 6 23 67 9 81 -7 7
-7 16 1 30 10 20 11 20 24 2 8 -10 14 -34 14 -54z m85 54 c11 0 20 -7 20 -15
0 -9 -7 -14 -17 -12 -15 2 -18 -5 -18 -42 0 -30 5 -48 16 -54 14 -8 14 -10 0
-21 -26 -22 -46 4 -46 58 0 25 -4 53 -10 61 -11 18 7 43 24 32 6 -4 20 -7 31
-7z m-491 -36 c61 -28 42 -169 -23 -169 -28 0 -41 22 -48 79 -5 45 -3 55 17
76 27 29 23 28 54 14z m-927 -345 c-3 -3 -12 -4 -19 -1 -8 3 -5 6 6 6 11 1 17
-2 13 -5z m1852 -104 c63 -34 119 -76 111 -83 -3 -3 -37 16 -76 41 -39 26 -79
52 -90 59 -39 24 0 12 55 -17z m-1942 -91 c19 -13 13 -14 -58 -15 -75 0 -94 7
-71 30 11 12 106 1 129 -15z m287 -44 c25 -20 46 -40 46 -46 0 -5 10 -13 23
-18 12 -5 46 -30 75 -54 75 -66 107 -87 130 -87 26 0 36 -14 56 -77 34 -102
115 -137 316 -137 69 1 144 6 167 13 53 15 94 63 130 153 14 37 34 75 45 85
18 16 20 16 40 -4 11 -12 39 -56 62 -100 55 -103 74 -113 216 -113 58 0 121 4
140 10 44 13 50 4 50 -84 0 -71 -14 -138 -55 -266 -13 -41 -31 -118 -40 -170
-17 -103 -41 -186 -56 -196 -11 -6 -69 112 -69 140 0 14 -3 17 -11 9 -8 -8 -8
-22 0 -49 22 -78 5 -134 -41 -134 -12 0 -18 -7 -18 -22 0 -41 -15 -52 -33 -25
-17 26 -82 45 -73 21 3 -7 -6 -15 -19 -18 -13 -3 -26 -14 -28 -24 -3 -10 -5
-5 -6 12 l-1 28 -23 -23 c-13 -12 -26 -20 -29 -18 -3 2 -12 -2 -21 -10 -13
-10 -20 -11 -31 -2 -11 9 -15 9 -18 -1 -4 -10 -8 -10 -21 1 -15 12 -17 11 -17
-5 0 -17 -2 -17 -18 4 -19 25 -34 21 -25 -6 9 -26 -46 28 -63 61 -8 15 -19 25
-23 22 -5 -3 -12 2 -15 11 -4 9 -9 14 -13 11 -16 -17 -32 49 -31 131 1 48 4
76 7 62 10 -44 37 -36 50 15 11 44 25 58 33 33 3 -7 13 9 23 35 16 43 45 74
94 102 9 5 12 4 7 -3 -12 -19 6 -14 31 10 13 12 23 16 23 10 0 -24 18 -11 29
19 26 76 -2 119 -51 79 -20 -16 -24 -16 -33 -3 -10 13 -20 9 -71 -30 -93 -71
-144 -141 -144 -198 0 -17 -4 -28 -10 -24 -15 9 -23 -40 -11 -64 8 -15 8 -33
0 -66 -18 -70 -7 -181 24 -249 15 -32 27 -60 27 -62 0 -4 -77 51 -228 164 -93
70 -202 187 -252 271 -50 84 -82 169 -120 323 -32 126 -48 166 -35 91 4 -24 3
-43 -2 -43 -12 1 -127 169 -144 210 -19 47 -17 147 3 184 l15 29 17 -24 c12
-20 14 -32 6 -59 -14 -49 -13 -73 4 -67 10 4 12 0 9 -14 -9 -33 6 -67 37 -83
35 -17 38 -9 10 27 -24 30 -25 45 -5 71 20 26 19 49 -5 95 -28 56 -69 101 -91
101 -16 0 -19 -7 -19 -47 0 -47 -13 -83 -25 -71 -4 3 -7 30 -8 60 -1 40 5 63
22 91 12 20 26 37 30 37 5 0 29 -16 55 -35z m1338 -30 c-20 -16 -31 -38 -36
-64 -8 -51 -25 -67 -92 -87 -63 -18 -81 -14 -89 18 -5 18 7 36 53 85 60 62 73
68 155 72 l39 1 -30 -25z m-805 -110 c31 -8 77 -15 100 -15 48 0 47 1 31 -35
-17 -38 -63 -58 -146 -63 -59 -4 -76 -1 -91 12 -21 19 -32 49 -22 63 5 7 62
52 68 53 1 0 28 -7 60 -15z m-817 -59 c0 -3 -4 -8 -10 -11 -5 -3 -10 -1 -10 4
0 6 5 11 10 11 6 0 10 -2 10 -4z m2088 -33 c3 -9 -12 -13 -52 -13 -60 0 -69 5
-33 20 30 12 79 8 85 -7z m-2028 -12 c0 -14 -55 -51 -75 -51 -26 0 -12 23 26
42 39 20 49 22 49 9z m198 -181 c17 -21 32 -41 32 -43 0 -3 -14 -10 -30 -17
-17 -7 -38 -26 -46 -42 -32 -63 -179 -101 -318 -84 -58 8 -77 26 -28 26 15 1
54 7 87 14 51 12 55 14 25 15 -19 1 -59 4 -87 7 l-53 7 0 42 c0 63 16 71 145
79 61 3 133 12 160 20 73 20 77 19 113 -24z m1699 -26 c10 -26 -8 -30 -28 -5
-10 13 -19 27 -19 32 0 14 40 -10 47 -27z m-1592 -96 c14 -6 25 -19 25 -28 0
-68 77 -275 132 -353 22 -32 22 -32 0 -13 -12 10 -38 43 -58 72 -41 59 -53 63
-35 13 16 -47 14 -54 -11 -33 -29 26 -77 134 -89 201 -9 48 -4 153 6 153 2 0
16 -5 30 -12z m1543 -33 c35 -15 114 -38 175 -52 62 -13 113 -26 115 -28 2 -1
-4 -19 -12 -39 -16 -39 -18 -40 -126 -38 -56 1 -61 0 -37 -9 46 -18 22 -26
-60 -21 -57 3 -89 10 -119 27 -66 39 -69 44 -49 126 20 79 11 77 113 34z
m-541 -632 c-3 -10 -5 -4 -5 12 0 17 2 24 5 18 2 -7 2 -21 0 -30z"/>
<path d="M1010 2391 c-17 -5 -21 -9 -12 -15 15 -9 52 1 52 15 0 10 -4 10 -40
0z"/>
<path d="M1478 1996 c-6 -15 -8 -29 -5 -32 9 -9 37 15 37 32 0 25 -20 25 -32
0z"/>
<path d="M1482 1929 c1 -13 8 -23 13 -21 15 3 12 35 -3 40 -9 3 -13 -3 -10
-19z"/>
<path d="M1857 2003 c-11 -10 -8 -43 3 -43 12 0 31 35 23 44 -8 8 -18 8 -26
-1z"/>
<path d="M1860 1931 c0 -22 16 -36 24 -22 8 12 -3 41 -15 41 -5 0 -9 -9 -9
-19z"/>
<path d="M1065 2040 c-4 -7 -7 -48 -6 -92 1 -49 -3 -85 -10 -94 -15 -18 -7
-27 16 -18 15 6 17 17 12 77 -2 41 -1 64 4 56 8 -12 11 -11 19 1 15 23 12 45
-9 64 -14 13 -21 14 -26 6z"/>
<path d="M1097 1943 c-12 -11 -8 -23 8 -23 8 0 15 7 15 15 0 16 -12 20 -23 8z"/>
<path d="M1090 1895 c0 -10 7 -15 18 -13 21 4 19 22 -2 26 -10 2 -16 -3 -16
-13z"/>
<path d="M1096 1862 c-8 -13 11 -35 23 -28 16 10 14 36 -3 36 -8 0 -17 -4 -20
-8z"/>
<path d="M1234 1958 c3 -13 6 -35 6 -49 0 -16 7 -30 16 -33 24 -9 27 -3 19 53
-6 42 -10 51 -27 51 -16 0 -19 -5 -14 -22z"/>
<path d="M710 1096 c-15 -62 -9 -86 20 -86 24 0 35 22 25 48 -6 15 -8 14 -16
-5 -15 -40 -21 -25 -14 37 4 33 5 60 3 60 -3 0 -11 -24 -18 -54z"/>
<path d="M1575 1020 c-3 -5 -1 -10 6 -10 8 0 8 -4 -1 -15 -10 -12 -9 -15 8
-15 11 0 28 3 37 6 14 6 14 8 -1 25 -19 21 -39 25 -49 9z"/>
<path d="M1736 963 c6 -28 3 -32 -29 -42 -20 -7 -48 -22 -63 -33 -24 -19 -31
-20 -70 -10 -25 7 -64 12 -88 12 -50 0 -71 18 -60 52 6 20 5 21 -10 9 -18 -15
-21 -48 -6 -71 5 -8 34 -17 67 -21 32 -4 79 -11 106 -15 40 -6 53 -3 85 17 20
14 51 31 67 40 37 18 43 49 15 74 -20 18 -20 18 -14 -12z"/>
<path d="M764 933 c6 -48 54 -159 63 -149 6 6 -56 196 -64 196 -3 0 -3 -21 1
-47z"/>
<path d="M810 899 c1 -43 73 -199 86 -186 4 4 -72 194 -82 206 -2 2 -4 -7 -4
-20z"/>
<path d="M1607 817 c-24 -8 -27 -14 -27 -53 0 -24 2 -44 5 -44 3 0 21 8 40 19
29 15 41 17 68 7 37 -13 77 -49 77 -71 0 -8 4 -24 9 -37 6 -13 12 -40 16 -60
3 -21 10 -38 14 -38 24 0 40 112 22 148 -5 9 -13 28 -19 42 -22 58 -142 108
-205 87z"/>
<path d="M890 796 c0 -29 51 -120 60 -107 5 9 11 2 19 -20 6 -18 14 -30 17
-26 8 8 -25 105 -38 113 -7 5 -9 -3 -5 -22 4 -21 -1 -15 -17 19 -28 56 -36 66
-36 43z"/>
<path d="M1645 718 c-11 -6 -30 -20 -43 -32 -19 -17 -37 -21 -87 -21 -59 0
-67 -3 -99 -34 -48 -46 -90 -143 -78 -179 5 -15 20 -31 35 -36 22 -8 36 -2
102 44 56 38 89 54 121 58 51 5 122 -18 150 -50 l19 -21 -60 9 c-110 16 -179
3 -214 -40 -11 -13 -8 -14 25 -9 34 6 37 5 32 -15 -4 -12 -2 -22 3 -22 5 0 9
-9 9 -20 0 -13 5 -18 15 -14 9 4 15 0 15 -7 1 -10 5 -8 14 4 14 18 15 17 21
-3 9 -30 30 -10 31 30 3 74 -1 69 57 63 64 -6 84 9 67 51 -5 15 -10 48 -10 73
0 63 -19 119 -51 154 -29 31 -43 35 -74 17z m76 -73 c10 -22 19 -51 19 -64 0
-22 -2 -22 -23 10 -12 18 -35 40 -50 49 -25 14 -28 14 -42 -7 -28 -39 -50 -45
-101 -28 -26 9 -56 13 -68 10 -20 -6 -19 -5 3 15 21 18 33 20 72 15 44 -6 52
-4 95 29 54 41 65 38 95 -29z m-22 -71 c28 -35 26 -46 -5 -34 -39 15 -121 12
-157 -6 -18 -9 -53 -31 -79 -50 -51 -36 -79 -45 -85 -27 -2 6 20 28 49 47 54
37 45 50 -13 20 -17 -8 -33 -14 -35 -11 -8 8 38 57 66 72 25 13 33 13 70 0 59
-21 83 -19 110 10 26 28 45 23 79 -21z"/>
<path d="M994 675 c4 -16 18 -54 31 -84 24 -55 24 -55 24 -21 1 38 -29 113
-49 125 -10 6 -11 1 -6 -20z"/>
<path d="M1800 509 c0 -5 5 -7 10 -4 6 3 10 8 10 11 0 2 -4 4 -10 4 -5 0 -10
-5 -10 -11z"/>
<path d="M943 440 c9 -14 27 -44 39 -67 24 -46 48 -57 48 -20 -1 14 -20 38
-53 67 -32 28 -45 35 -34 20z"/>
</g>
</svg>
